<svg xmlns="http://www.w3.org/2000/svg" viewBox="0 0 228.02 87.33"><defs><style>.cls-1{fill:#2d2d2d;}.cls-2{fill:#fce574;}.cls-3{fill:#d4d6d6;}</style></defs><title>logo-netfan</title><g id="Layer_2" data-name="Layer 2"><g id="Layer_1-2" data-name="Layer 1"><path class="cls-1" d="M101.58,33.17c1.35-.59,2.6-1.08,3.75-1.48s2.21-.71,3.21-1a23.52,23.52,0,0,1,2.77-.51,24,24,0,0,1,2.5-.14,6.17,6.17,0,0,1,4.55,1.56c1,1,1.58,2.71,1.58,5v24h-6.45v-23a7.87,7.87,0,0,0-.14-1.43,3.5,3.5,0,0,0-.53-1.3,2.92,2.92,0,0,0-1-.94,3.33,3.33,0,0,0-1.63-.36,19.87,19.87,0,0,0-8.58,2v25H95.13V30.69h6.45Z"></path><path class="cls-1" d="M135.52,30.09A11.58,11.58,0,0,1,141,31.28a10.25,10.25,0,0,1,3.66,3.22,13.52,13.52,0,0,1,2,4.69,24.71,24.71,0,0,1,.62,5.6v1.5H127.74a14.53,14.53,0,0,0,.57,3.84,11.62,11.62,0,0,0,1.85,3.81,10.64,10.64,0,0,0,3.34,2.91,10.09,10.09,0,0,0,5,1.15h6.61v2.61h-6.7a25.54,25.54,0,0,1-7.67-1,13.64,13.64,0,0,1-5.31-3,11.74,11.74,0,0,1-3.06-4.73,19.06,19.06,0,0,1-1-6.39,18.22,18.22,0,0,1,.93-5.78,15.19,15.19,0,0,1,2.73-4.93,13.27,13.27,0,0,1,4.42-3.43A13.43,13.43,0,0,1,135.52,30.09ZM135.2,33a6.16,6.16,0,0,0-3.37.89,7.21,7.21,0,0,0-2.3,2.36,11.06,11.06,0,0,0-1.33,3.43,20,20,0,0,0-.46,4.05h13.43V42.35a28.16,28.16,0,0,0-.34-3.53,9.83,9.83,0,0,0-.93-3,5.53,5.53,0,0,0-1.8-2.08A5,5,0,0,0,135.2,33Z"></path><path class="cls-1" d="M160.34,33.55h-4.29V60.61H150V33.55h-4.13V30.69H150V20.94l6.1-1.84V30.69h4.29Z"></path><path class="cls-1" d="M176.1,33.55h-4V72.2L166,74V33.55h-4.09V30.69H166V18.85a6.5,6.5,0,0,1,.59-2.35,5.32,5.32,0,0,1,1.3-1.72,5.62,5.62,0,0,1,1.89-1,7.72,7.72,0,0,1,2.35-.34h5.4v2.85c-1.2,0-2.16,0-2.87.07a4.36,4.36,0,0,0-1.64.35,1.33,1.33,0,0,0-.73.82,5.79,5.79,0,0,0-.16,1.5V30.69h4Z"></path><path class="cls-1" d="M187.62,32.82c-1,0-1.9,0-2.65.1s-1.44.15-2.05.26-1.19.23-1.72.38-1.06.28-1.58.44l-.77-2.07a28.51,28.51,0,0,1,5.58-1.41,37.13,37.13,0,0,1,5.51-.43,35.56,35.56,0,0,1,5.48.35,8.51,8.51,0,0,1,3.35,1.16,4.13,4.13,0,0,1,1.66,2.16,10.53,10.53,0,0,1,.46,3.38V60.61H190.48a25.9,25.9,0,0,1-7.26-.89,14.34,14.34,0,0,1-4.91-2.4,9.3,9.3,0,0,1-2.79-3.46,9.84,9.84,0,0,1-.89-4.11,12.21,12.21,0,0,1,.84-4.7,9.06,9.06,0,0,1,2.43-3.42,10.56,10.56,0,0,1,3.88-2.09,17.29,17.29,0,0,1,5.2-.72,14.17,14.17,0,0,1,3.61.54A15.67,15.67,0,0,1,194.45,41V37a7.53,7.53,0,0,0-.16-1.48,2.45,2.45,0,0,0-.83-1.34,5.15,5.15,0,0,0-2.05-1A15,15,0,0,0,187.62,32.82ZM194.45,58V43.3a12.3,12.3,0,0,0-3.18-1.36,13.87,13.87,0,0,0-3.65-.45,6.56,6.56,0,0,0-2.81.57,5.52,5.52,0,0,0-2.05,1.62,7.3,7.3,0,0,0-1.25,2.51,11.29,11.29,0,0,0-.43,3.24c0,.34,0,.78,0,1.33a8.83,8.83,0,0,0,.32,1.78,8.39,8.39,0,0,0,.83,1.92,6,6,0,0,0,1.57,1.77,8.24,8.24,0,0,0,2.57,1.28,12.73,12.73,0,0,0,3.81.49Z"></path><path class="cls-1" d="M209.66,33.17c1.36-.59,2.61-1.08,3.75-1.48s2.21-.71,3.21-1a23.29,23.29,0,0,1,2.78-.51,23.68,23.68,0,0,1,2.49-.14,6.21,6.21,0,0,1,4.56,1.56c1,1,1.57,2.71,1.57,5v24h-6.45v-23a7.87,7.87,0,0,0-.14-1.43,3.5,3.5,0,0,0-.53-1.3,2.84,2.84,0,0,0-1-.94,3.33,3.33,0,0,0-1.63-.36,19.87,19.87,0,0,0-8.58,2v25h-6.45V30.69h6.45Z"></path><rect class="cls-1" x="0.96" y="0.96" width="85.42" height="85.42"></rect><path class="cls-2" d="M47.25,67.28H41.91L15.74,30.6V67.28H12.5V26.06l-4.22-6h8.51L44,58.23V20.05h3.27Z"></path><path class="cls-2" d="M79.06,20.05v3.12H57.14V37.49H78.39V40.6H57.14V67.28h-7V20.05Z"></path><path class="cls-3" d="M87.33,87.33H0V0H87.33ZM1.91,85.42H85.42V1.91H1.91Z"></path></g></g></svg>